<?xml version="1.0" encoding="utf-8"?>
<!-- Generator: Adobe Illustrator 27.5.0, SVG Export Plug-In . SVG Version: 6.00 Build 0)  -->
<svg version="1.1" xmlns="http://www.w3.org/2000/svg" xmlns:xlink="http://www.w3.org/1999/xlink" x="0px" y="0px"
	 viewBox="0 0 500 500" style="enable-background:new 0 0 500 500;" xml:space="preserve">
<g id="Floor">
	<path id="Floor_6_" style="fill:#F5F5F5;" d="M99.201,428.194c85.865,50.85,225.08,50.852,310.944,0.001
		c85.865-50.852,85.865-133.296,0-184.146c-85.865-50.851-225.08-50.851-310.945-0.001
		C13.336,294.898,13.336,377.344,99.201,428.194z"/>
</g>
<g id="Shadows">
	<path id="Shadow" style="fill:#E0E0E0;" d="M400.473,273.576c-13.348,6.363-34.989,6.363-48.336,0
		c-13.348-6.361-13.348-16.676,0-23.038c13.348-6.361,34.988-6.361,48.336,0C413.821,256.9,413.821,267.215,400.473,273.576z"/>
</g>
<g id="Plants">
	<g id="Plants_11_">
		<g id="XMLID_1954_">
			<g id="XMLID_1957_">
				<path id="XMLID_1958_" style="fill:#27DEBF;" d="M438.205,329.38l-6.736-3.849c0,0-3.231-17.805-0.815-33.111
					c3.397-21.519,18.049-28.942,23.37-26.803c5.321,2.139,6.572,8.514-3.038,20.948
					C445.316,293.901,438.023,309.409,438.205,329.38z"/>
			</g>
			<g id="XMLID_1945_" style="opacity:0.1;">
				<path id="XMLID_1959_" d="M438.205,329.38l-6.736-3.849c0,0-3.231-17.805-0.815-33.111c3.397-21.519,18.049-28.942,23.37-26.803
					c5.321,2.139,6.572,8.514-3.038,20.948C445.316,293.901,438.023,309.409,438.205,329.38z"/>
			</g>
			<g id="XMLID_1955_">
				<path id="XMLID_1956_" style="fill:#FFFFFF;" d="M435.763,320.834c0.023,0,0.044-0.002,0.067-0.005
					c0.263-0.037,0.447-0.279,0.41-0.541c-2.784-20.147,5.318-42.219,14.421-51.115c0.19-0.185,0.193-0.49,0.008-0.679
					c-0.186-0.188-0.49-0.193-0.679-0.008c-9.269,9.058-17.526,31.49-14.7,51.933C435.321,320.659,435.527,320.834,435.763,320.834z
					"/>
			</g>
		</g>
		<g id="XMLID_1947_">
			<g id="XMLID_1952_">
				<path id="XMLID_1953_" style="fill:#27DEBF;" d="M456.895,340.177c1.064,0.611,3.258-0.725,4.099-1.289
					c1.438-0.965,2.604-2.332,3.378-3.878c0.901-1.799,1.128-3.727,0.846-5.717c-0.146-1.032-0.435-2.038-0.723-3.04
					c-0.283-0.984-0.565-1.967-0.848-2.951c-0.279-0.971-0.561-1.975-0.433-2.976c0.258-2.018,2.05-3.432,3.678-4.651
					c1.801-1.349,3.676-3.129,3.666-5.559c-0.008-1.875-0.979-3.616-2.141-5.087c-1.162-1.471-2.54-2.771-3.59-4.324
					c-0.756-1.118-1.346-2.431-1.223-3.776c0.076-0.835,0.422-1.622,0.822-2.359c0.858-1.582,1.99-3.031,2.582-4.731
					c0.592-1.7,0.508-3.814-0.819-5.03c-1.089-0.998-2.707-1.138-4.181-1.04c-1.364,0.09-2.696,0.705-3.888,1.369
					c-3.857,2.145-6.059,6.713-10.152,8.364c-1.579,0.637-3.308,0.776-4.954,1.211c-1.646,0.435-3.324,1.275-4.086,2.798
					c-1.503,3.001,1.286,6.7,0.23,9.885c-0.935,2.819-3.674,3.898-5.212,6.439c-0.673,1.111-0.828,2.396-0.72,3.691
					c0.184,2.191,0.505,3.799,1.556,6.236c0.869,2.014,3.423,5.618,3.423,5.618C438.269,329.443,456.732,340.084,456.895,340.177z"
					/>
			</g>
			<g id="XMLID_1950_">
				<path id="XMLID_1951_" style="fill:#FFFFFF;" d="M445.96,334.351c0.007,0,0.013,0,0.013,0c0.272-0.011,0.478-0.236,0.467-0.5
					c-0.794-19.069,8.191-40.121,14.725-46.237c0.193-0.181,0.203-0.485,0.022-0.679c-0.182-0.193-0.485-0.203-0.679-0.022
					c-6.665,6.239-15.832,27.641-15.029,46.978C445.491,334.149,445.703,334.351,445.96,334.351z"/>
			</g>
			<g id="XMLID_1948_">
				<path id="XMLID_1949_" style="fill:#FFFFFF;" d="M448.817,311.823c0.047,0,0.095-0.007,0.142-0.022
					c6.126-1.894,13.762-2.228,13.838-2.231c0.265-0.011,0.471-0.235,0.461-0.5c-0.011-0.265-0.212-0.474-0.5-0.461
					c-0.078,0.004-7.835,0.342-14.082,2.274c-0.253,0.078-0.396,0.347-0.317,0.6C448.422,311.69,448.612,311.823,448.817,311.823z"
					/>
			</g>
		</g>
	</g>
	<g id="Plants_9_">
		<g id="XMLID_1889_">
			<g id="XMLID_1894_">
				<path id="XMLID_1895_" style="fill:#37474F;" d="M77.597,329.576l6.736-3.849c0,0,3.231-17.805,0.815-33.111
					c-3.397-21.519-18.049-28.942-23.371-26.803s-6.572,8.514,3.038,20.948C70.485,294.097,77.779,309.605,77.597,329.576z"/>
			</g>
			<g id="XMLID_1890_">
				<path id="XMLID_1891_" style="fill:#FFFFFF;" d="M80.038,321.03c-0.022,0-0.044-0.002-0.067-0.005
					c-0.263-0.037-0.447-0.279-0.41-0.541c2.784-20.147-5.318-42.219-14.421-51.115c-0.189-0.185-0.193-0.49-0.007-0.679
					c0.186-0.188,0.49-0.193,0.679-0.007c9.269,9.058,17.526,31.49,14.7,51.933C80.48,320.855,80.274,321.03,80.038,321.03z"/>
			</g>
		</g>
		<g id="XMLID_1882_">
			<g id="XMLID_1887_">
				<path id="XMLID_1888_" style="fill:#455A64;" d="M58.906,340.374c-1.064,0.611-3.258-0.725-4.099-1.289
					c-1.439-0.965-2.604-2.332-3.378-3.878c-0.901-1.799-1.128-3.727-0.846-5.717c0.146-1.032,0.435-2.038,0.723-3.04
					c0.283-0.984,0.566-1.967,0.848-2.951c0.279-0.971,0.561-1.975,0.433-2.976c-0.258-2.018-2.05-3.432-3.678-4.651
					c-1.801-1.349-3.676-3.129-3.666-5.559c0.008-1.875,0.979-3.616,2.141-5.087c1.162-1.471,2.541-2.771,3.59-4.324
					c0.756-1.118,1.345-2.431,1.223-3.776c-0.076-0.835-0.423-1.622-0.822-2.359c-0.858-1.582-1.99-3.031-2.582-4.731
					c-0.592-1.699-0.508-3.813,0.819-5.03c1.089-0.998,2.707-1.138,4.181-1.04c1.363,0.09,2.695,0.705,3.888,1.369
					c3.857,2.145,6.059,6.713,10.152,8.364c1.579,0.637,3.309,0.776,4.954,1.211c1.646,0.435,3.324,1.276,4.086,2.798
					c1.503,3.001-1.286,6.7-0.23,9.885c0.935,2.819,3.674,3.898,5.213,6.439c0.673,1.111,0.828,2.396,0.719,3.691
					c-0.184,2.191-0.505,3.799-1.556,6.236c-0.869,2.014-3.423,5.618-3.423,5.618C77.533,329.64,59.069,340.28,58.906,340.374z"/>
			</g>
			<g id="XMLID_1885_">
				<path id="XMLID_1886_" style="fill:#FFFFFF;" d="M69.842,334.547c-0.007,0-0.013,0-0.013,0c-0.272-0.011-0.478-0.235-0.467-0.5
					c0.794-19.069-8.191-40.121-14.725-46.237c-0.193-0.181-0.204-0.485-0.022-0.679c0.182-0.193,0.485-0.203,0.679-0.023
					c6.665,6.239,15.833,27.641,15.029,46.978C70.311,334.346,70.098,334.547,69.842,334.547z"/>
			</g>
			<g id="XMLID_1883_">
				<path id="XMLID_1884_" style="fill:#FFFFFF;" d="M66.984,312.019c-0.047,0-0.095-0.007-0.142-0.022
					c-6.126-1.894-13.762-2.228-13.838-2.231c-0.265-0.011-0.471-0.235-0.461-0.5c0.011-0.264,0.212-0.474,0.5-0.461
					c0.078,0.004,7.835,0.342,14.082,2.274c0.253,0.078,0.396,0.347,0.317,0.6C67.379,311.887,67.19,312.019,66.984,312.019z"/>
			</g>
		</g>
	</g>
	<g id="XMLID_1924_">
		<g id="XMLID_1937_">
			<g id="XMLID_1944_">
				<path id="XMLID_1946_" style="fill:#37474F;" d="M390.377,245.214c0.525-5.052,5.266-15.137,11.19-21.152
					c5.924-6.015,14.664-9.955,20.311-7.344c5.259,2.432,3.925,9.524-3.183,13.578c-7.109,4.053-17.673,8.975-21.433,16.868
					l-7.149,9.42L390.377,245.214z"/>
			</g>
			<g id="XMLID_1942_">
				<path id="XMLID_1943_" style="fill:#FFFFFF;" d="M389.286,252.088c0.162,0.004,0.314-0.1,0.363-0.262
					c5.174-16.894,20.582-29.462,29.254-31.692c0.198-0.051,0.318-0.254,0.267-0.452c-0.05-0.198-0.248-0.321-0.452-0.267
					c-8.837,2.272-24.525,15.043-29.778,32.193c-0.06,0.196,0.05,0.403,0.246,0.463
					C389.219,252.082,389.253,252.087,389.286,252.088z"/>
			</g>
		</g>
		<g id="XMLID_1928_">
			<g id="XMLID_1933_">
				<path id="XMLID_1934_" style="fill:#455A64;" d="M390.711,263.394c1.107-2.755,5.062-7.081,11.074-10.37
					c6.651-3.637,14.71-4.791,16.866-7.936c2.591-3.778-0.391-7.911-6.848-7.783c-6.457,0.128-18.569,7.662-21.722,20.571
					L390.711,263.394z"/>
			</g>
			<g id="XMLID_1930_">
				<path id="XMLID_1932_" style="fill:#FFFFFF;" d="M389.787,260.286c0.141,0.003,0.278-0.075,0.343-0.211
					c6.823-14.225,18.634-18.239,23.925-18.375c0.205-0.005,0.367-0.176,0.362-0.38c-0.005-0.206-0.168-0.367-0.38-0.362
					c-5.851,0.15-17.611,4.276-24.576,18.796c-0.089,0.184-0.01,0.407,0.174,0.495C389.685,260.273,389.736,260.285,389.787,260.286
					z"/>
			</g>
		</g>
	</g>
</g>
<g id="Device">
	<g id="XMLID_2720_">
		<g id="XMLID_1338_">
			<path id="XMLID_2771_" style="fill:#37474F;" d="M80.783,363.848l109.136,63.005c2.391,1.381,6.269,1.381,8.66,0l206.628-119.321
				c2.392-1.38,2.392-3.619,0-5l-109.137-63.006c-2.392-1.381-6.269-1.381-8.66,0L80.783,358.848
				C78.392,360.228,78.392,362.467,80.783,363.848z"/>
		</g>
		<g id="XMLID_1320_">
			<path id="XMLID_2769_" style="fill:#263238;" d="M141.528,391.809c3.322,1.918,8.707,1.918,12.029,0
				c3.322-1.918,3.322-5.026,0-6.944s-8.707-1.918-12.029,0C138.206,386.782,138.206,389.892,141.528,391.809z"/>
		</g>
		<g id="XMLID_1318_">
			<path id="XMLID_1319_" style="fill:#455A64;" d="M189.919,426.853L80.783,363.848c-2.138-1.234-2.359-3.153-0.673-4.533
				c-2.069,1.57-3.657,4.538-3.657,7.033v4.071c0,2.762,1.939,6.119,4.33,7.5l109.136,63.005c1.195,0.69,2.763,1.036,4.33,1.036
				v-14.071C192.682,427.889,191.114,427.543,189.919,426.853z"/>
		</g>
		<g id="XMLID_2751_">
			<path id="XMLID_2755_" style="fill:#263238;" d="M405.206,321.602c2.392-1.38,4.33-4.738,4.33-7.499v-4.072
				c0-2.496-1.59-5.466-3.661-7.035c1.691,1.38,1.473,3.301-0.668,4.536L198.579,426.853c-1.196,0.69-2.763,1.036-4.33,1.036v14.071
				c1.567,0,3.134-0.346,4.33-1.036L405.206,321.602z"/>
		</g>
		<g id="XMLID_1316_">
			<path id="XMLID_1317_" style="fill:#FAFAFA;" d="M211.961,411.453l-100.449-57.969c-1.435-0.829-1.435-2.172,0-3l165.364-95.531
				c1.436-0.829,3.762-0.829,5.196-0.001l100.486,57.959c1.435,0.829,1.435,2.172,0,3l-165.401,95.542
				C215.722,412.282,213.395,412.282,211.961,411.453z"/>
		</g>
		<g id="XMLID_1881_">
			<g id="XMLID_1880_">
				<path id="XMLID_836_" style="fill:#E6E6E6;" d="M203.811,397.347l-76.044-43.904c-1.435-0.828-1.435-2.172,0-3l2.928-1.691
					c1.435-0.828,3.761-0.829,5.196,0l76.044,43.905c1.435,0.828,1.435,2.172,0,3l-2.928,1.69
					C207.572,398.175,205.246,398.175,203.811,397.347z"/>
				<path id="XMLID_1308_" style="fill:#27DEBF;" d="M211.772,400.442l5.526-3.19c0.717-0.414,1.635-0.168,2.049,0.549l2.562,4.437
					c0.414,0.717,0.09,1.172-0.723,1.016l-9.24-1.778C211.132,401.319,211.054,400.856,211.772,400.442z"/>
			</g>
			<g id="XMLID_1829_">
				<path id="XMLID_731_" style="fill:#E6E6E6;" d="M273.433,266.342c3.366-1.943,8.822-1.943,12.187,0
					c3.365,1.943,3.365,5.093-0.001,7.036c-3.365,1.943-8.822,1.943-12.187,0C270.067,271.435,270.068,268.285,273.433,266.342z"/>
				<g id="XMLID_1821_">
					<path id="XMLID_1243_" style="fill:#E6E6E6;" d="M350.045,308.229c1.435,0.829,1.435,2.172,0,3l-15.115,8.726
						c-1.435,0.828-3.761,0.828-5.196,0l-47.61-27.487c-1.435-0.828-1.435-2.172,0-3l13.649-7.881l-4.062-7.036L350.045,308.229z"/>
					<path id="XMLID_1307_" style="fill:#FAFAFA;" d="M300.341,285.282l42.085,24.298c0.717,0.414,0.844,1.012,0.284,1.336
						c-0.561,0.324-1.597,0.25-2.314-0.164l-42.085-24.298c-0.717-0.414-0.844-1.012-0.283-1.336
						C298.588,284.795,299.624,284.868,300.341,285.282z"/>
					<path id="XMLID_1310_" style="fill:#FAFAFA;" d="M296.269,287.642l42.085,24.298c0.717,0.414,0.844,1.012,0.284,1.336
						c-0.561,0.324-1.597,0.25-2.314-0.164l-42.085-24.298c-0.718-0.414-0.844-1.012-0.283-1.336
						C294.515,287.154,295.552,287.228,296.269,287.642z"/>
					<path id="XMLID_1311_" style="fill:#FAFAFA;" d="M292.197,290.002l42.085,24.298c0.717,0.414,0.844,1.012,0.284,1.336
						c-0.561,0.324-1.597,0.25-2.314-0.164l-42.085-24.298c-0.717-0.414-0.844-1.012-0.283-1.336
						C290.443,289.514,291.479,289.587,292.197,290.002z"/>
				</g>
			</g>
			<g id="XMLID_1827_">
				<path id="XMLID_1303_" style="fill:#E6E6E6;" d="M265.331,360.178c3.366-1.943,8.822-1.943,12.187,0
					c3.365,1.943,3.365,5.093-0.001,7.036c-3.366,1.943-8.822,1.943-12.187,0C261.965,365.272,261.965,362.122,265.331,360.178z"/>
				<g id="XMLID_1824_">
					<path id="XMLID_1302_" style="fill:#E6E6E6;" d="M251.114,354.316l-13.662,7.907c-1.435,0.828-3.761,0.828-5.196,0
						l-47.637-27.503c-1.435-0.828-1.435-2.172,0-3l15.127-8.752c1.435-0.828,3.761-0.828,5.196,0l58.358,33.693L251.114,354.316z"
						/>
					<path id="XMLID_1564_" style="fill:#FAFAFA;" d="M202.667,327.5l42.085,24.298c0.717,0.414,0.844,1.013,0.284,1.336
						c-0.561,0.324-1.597,0.25-2.314-0.164l-42.085-24.298c-0.717-0.414-0.844-1.012-0.283-1.336
						C200.913,327.013,201.949,327.086,202.667,327.5z"/>
					<path id="XMLID_1562_" style="fill:#FAFAFA;" d="M198.595,329.86l42.085,24.298c0.717,0.414,0.844,1.012,0.284,1.336
						c-0.561,0.324-1.597,0.25-2.314-0.164l-42.085-24.298c-0.717-0.414-0.844-1.012-0.283-1.336
						C196.841,329.372,197.877,329.446,198.595,329.86z"/>
					<path id="XMLID_1367_" style="fill:#FAFAFA;" d="M194.522,332.22l42.085,24.298c0.717,0.414,0.844,1.012,0.284,1.336
						c-0.561,0.324-1.597,0.25-2.314-0.164l-42.085-24.298c-0.717-0.414-0.844-1.012-0.283-1.336
						C192.769,331.732,193.805,331.805,194.522,332.22z"/>
				</g>
			</g>
			<g id="XMLID_1828_">
				<path id="XMLID_1267_" style="fill:#E6E6E6;" d="M216.564,299.176c3.365-1.943,8.822-1.943,12.187,0
					c3.365,1.943,3.365,5.093-0.001,7.036c-3.365,1.943-8.822,1.943-12.187,0C213.198,304.269,213.199,301.119,216.564,299.176z"/>
				<g id="XMLID_1823_">
					<path id="XMLID_1255_" style="fill:#E6E6E6;" d="M281.02,334.043c1.435,0.828,1.435,2.172,0,3l-11.129,6.375
						c-1.435,0.828-3.761,0.828-5.196,0l-35.453-20.468c-1.435-0.828-1.435-2.172,0-3l9.664-5.53l-4.062-7.036L281.02,334.043z"/>
					<path id="XMLID_1357_" style="fill:#FAFAFA;" d="M244.957,316.726l30.518,17.618c0.717,0.414,0.844,1.012,0.284,1.336
						c-0.561,0.324-1.597,0.25-2.314-0.164l-30.518-17.618c-0.717-0.414-0.844-1.012-0.283-1.336
						C243.203,316.238,244.24,316.312,244.957,316.726z"/>
					<path id="XMLID_1350_" style="fill:#FAFAFA;" d="M240.885,319.086l30.518,17.618c0.717,0.414,0.844,1.012,0.284,1.336
						c-0.561,0.324-1.597,0.25-2.314-0.164l-30.518-17.618c-0.717-0.414-0.844-1.012-0.283-1.336
						C239.131,318.598,240.167,318.672,240.885,319.086z"/>
					<path id="XMLID_1314_" style="fill:#FAFAFA;" d="M236.813,321.445l30.518,17.618c0.717,0.414,0.844,1.012,0.284,1.336
						c-0.561,0.324-1.597,0.25-2.314-0.164l-30.518-17.618c-0.717-0.414-0.844-1.012-0.283-1.336
						C235.059,320.958,236.095,321.031,236.813,321.445z"/>
				</g>
			</g>
			<g id="XMLID_1879_">
				<path id="XMLID_1244_" style="fill:#E6E6E6;" d="M318.14,329.693c3.366-1.943,8.822-1.943,12.187,0
					c3.365,1.943,3.365,5.093-0.001,7.036c-3.366,1.943-8.822,1.943-12.187,0C314.774,334.786,314.775,331.636,318.14,329.693z"/>
				<g id="XMLID_1822_">
					<path id="XMLID_1251_" style="fill:#E6E6E6;" d="M303.923,323.83l-5.526,3.19c-1.435,0.828-3.761,0.828-5.196,0l-23.237-13.417
						c-1.435-0.828-1.435-2.172,0-3l6.99-4.035c1.435-0.828,3.761-0.828,5.196,0l33.959,19.607L303.923,323.83z"/>
					<path id="XMLID_1312_" style="fill:#FAFAFA;" d="M280.491,309.041l20.361,11.757c0.717,0.414,0.844,1.013,0.284,1.336
						s-1.597,0.25-2.314-0.164l-20.362-11.757c-0.717-0.414-0.844-1.013-0.283-1.336
						C278.738,308.554,279.774,308.627,280.491,309.041z"/>
					<path id="XMLID_1309_" style="fill:#FAFAFA;" d="M276.419,311.401l20.361,11.757c0.717,0.414,0.844,1.012,0.284,1.336
						c-0.561,0.324-1.597,0.25-2.314-0.164l-20.362-11.757c-0.717-0.414-0.844-1.012-0.283-1.336
						C274.665,310.913,275.702,310.987,276.419,311.401z"/>
				</g>
			</g>
			<g id="XMLID_1826_">
				<path id="XMLID_1305_" style="fill:#E6E6E6;" d="M155.637,334.355c3.365-1.943,8.822-1.943,12.187,0
					c3.365,1.943,3.365,5.093-0.001,7.036c-3.365,1.943-8.822,1.943-12.187,0C152.271,339.448,152.272,336.298,155.637,334.355z"/>
				<g id="XMLID_1825_">
					<path id="XMLID_1304_" style="fill:#E6E6E6;" d="M203.737,359.833c1.435,0.828,1.435,2.172,0,3l-6.959,4.048
						c-1.435,0.828-3.761,0.828-5.196,0l-19.097-11.078c-1.435-0.828-1.435-2.172,0-3l5.494-3.203l-4.062-7.036L203.737,359.833z"/>
					<path id="XMLID_1566_" style="fill:#FAFAFA;" d="M183.818,351.67l15.585,8.987c0.717,0.414,0.844,1.013,0.284,1.336
						c-0.561,0.324-1.597,0.25-2.314-0.164l-15.585-8.987c-0.717-0.414-0.844-1.012-0.283-1.336
						C182.065,351.182,183.101,351.256,183.818,351.67z"/>
					<path id="XMLID_1565_" style="fill:#FAFAFA;" d="M179.746,354.03l15.585,8.987c0.717,0.414,0.845,1.012,0.284,1.336
						c-0.561,0.324-1.597,0.25-2.314-0.164l-15.585-8.987c-0.717-0.414-0.844-1.012-0.283-1.336
						C177.992,353.542,179.029,353.615,179.746,354.03z"/>
				</g>
			</g>
		</g>
		<g id="XMLID_1261_">
			<path id="XMLID_1266_" style="fill:#263238;" d="M342.258,276.14c0.733,0.424,1.921,0.423,2.654,0
				c0.734-0.423,0.734-1.109,0-1.532c-0.733-0.423-1.921-0.423-2.654,0C341.525,275.031,341.525,275.717,342.258,276.14z"/>
		</g>
		<g id="XMLID_2721_">
			<g id="XMLID_1258_">
				<path id="XMLID_1260_" style="fill:#263238;" d="M346.5,288.177c1.466,0.847,3.843,0.847,5.309,0s1.466-2.219,0-3.065
					c-1.466-0.847-3.843-0.847-5.309,0C345.034,285.958,345.034,287.33,346.5,288.177z"/>
			</g>
			<g id="XMLID_2722_">
				<path id="XMLID_2723_" style="fill:#263238;" d="M342.757,282.843c0.978-0.564,0.926-1.509-0.116-2.11l-17.463-10.082
					c-1.041-0.602-2.679-0.632-3.656-0.068c-0.977,0.565-0.925,1.509,0.116,2.111l17.464,10.082
					C340.143,283.377,341.78,283.408,342.757,282.843z"/>
			</g>
		</g>
	</g>
</g>
<g id="Speach_Bubbles">
	<g id="XMLID_1830_">
		<g id="XMLID_2_">
			<g id="XMLID_1835_">
				<g id="XMLID_1_">
					<path id="XMLID_1935_" style="fill:#27DEBF;" d="M128.464,285.311l-5.54-3.2c-0.11-0.05-0.2-0.12-0.26-0.23l-1.02-1.78
						l3.29-1.9l-0.1,0.29L128.464,285.311z"/>
					<path id="XMLID_1446_" style="opacity:0.2;" d="M128.464,285.311l-5.54-3.2c-0.11-0.05-0.2-0.12-0.26-0.23l-1.02-1.78l3.29-1.9
						l-0.1,0.29L128.464,285.311z"/>
				</g>
				<path id="XMLID_1912_" style="fill:#27DEBF;" d="M124.433,278.472l3.834,6.641c0.245,0.425,0.876,0.364,1.036-0.099
					l4.052-11.698L124.433,278.472z"/>
				<path id="XMLID_3641_" style="fill:#27DEBF;" d="M205.629,194.659c0-1.709-1.199-3.786-2.679-4.641l-2.182-1.26
					c-1.479-0.854-3.879-0.854-5.358,0l-87.226,50.329c-1.48,0.855-2.679,2.932-2.679,4.641v33.889c0,1.709,1.2,3.786,2.679,4.641
					l2.182,1.259c1.48,0.854,3.879,0.854,5.359,0l87.476-50.51c2.407-1.372,2.429-2.75,2.429-4.459L205.629,194.659z"/>
				<path id="XMLID_1911_" style="opacity:0.2;" d="M105.505,277.616c0,1.709,1.2,3.786,2.679,4.641l2.182,1.259
					c1.338,0.772,3.419,0.848,4.901,0.225c-1.261,0.477-2.221-0.243-2.221-1.772l0-33.888c0-0.855,0.3-1.801,0.785-2.641
					l-7.54-4.353c-0.485,0.84-0.785,1.786-0.785,2.641V277.616z"/>
				<path id="XMLID_1910_" style="opacity:0.4;fill:#FFFFFF;" d="M205.542,193.897c-0.313-1.137-1.35-1.5-2.587-0.787
					l-87.232,50.333c-0.737,0.425-1.412,1.15-1.888,2l-7.537-4.35c0.487-0.85,1.15-1.575,1.887-2l87.219-50.333
					c1.488-0.85,3.887-0.85,5.363,0l2.188,1.262C204.217,190.747,205.279,192.372,205.542,193.897z"/>
			</g>
			<g id="XMLID_361_">
				<path id="XMLID_1363_" style="fill:#FFFFFF;" d="M120.245,248.673l76.727-44.405c0.897-0.518,1.624-0.281,1.624,0.528
					c0,0.81-0.727,1.886-1.624,2.404l-76.727,44.405c-0.897,0.518-1.624,0.281-1.624-0.528
					C118.622,250.267,119.349,249.191,120.245,248.673z"/>
				<path id="XMLID_1362_" style="fill:#FFFFFF;" d="M120.245,263.786l63.57-36.71c0.897-0.518,1.624-0.281,1.624,0.528
					s-0.727,1.886-1.624,2.403l-63.57,36.709c-0.897,0.518-1.624,0.281-1.624-0.528C118.622,265.38,119.349,264.304,120.245,263.786
					z"/>
				<path id="XMLID_1361_" style="fill:#FFFFFF;" d="M120.245,271.145l74.831-43.276c0.897-0.518,1.624-0.281,1.624,0.529
					c0,0.81-0.727,1.886-1.624,2.403l-74.831,43.276c-0.897,0.518-1.624,0.281-1.624-0.528
					C118.622,272.739,119.349,271.663,120.245,271.145z"/>
				<path id="XMLID_1444_" style="fill:#FFFFFF;" d="M120.245,256.061l74.831-43.276c0.897-0.518,1.624-0.281,1.624,0.529
					c0,0.81-0.727,1.886-1.624,2.403l-74.831,43.276c-0.897,0.518-1.624,0.281-1.624-0.528
					C118.622,257.655,119.349,256.579,120.245,256.061z"/>
			</g>
		</g>
		<g id="XMLID_732_">
			<g id="XMLID_843_">
				<g id="XMLID_1229_">
					<path id="XMLID_1238_" style="fill:#27DEBF;" d="M128.464,118.397l-5.54-3.2c-0.11-0.05-0.2-0.12-0.26-0.23l-1.02-1.78
						l3.29-1.9l-0.1,0.29L128.464,118.397z"/>
					<path id="XMLID_1236_" style="opacity:0.2;" d="M128.464,118.397l-5.54-3.2c-0.11-0.05-0.2-0.12-0.26-0.23l-1.02-1.78l3.29-1.9
						l-0.1,0.29L128.464,118.397z"/>
				</g>
				<path id="XMLID_1227_" style="fill:#27DEBF;" d="M124.433,111.558l3.834,6.641c0.245,0.425,0.876,0.364,1.036-0.099
					l4.052-11.698L124.433,111.558z"/>
				<path id="XMLID_1226_" style="fill:#27DEBF;" d="M196.597,41.547c0-1.709-1.199-3.786-2.679-4.641l-2.182-1.259
					c-1.479-0.854-3.879-0.854-5.358,0L108.184,80.78c-1.48,0.854-2.679,2.932-2.679,4.641v25.281c0,1.709,1.2,3.786,2.679,4.641
					l2.182,1.259c1.48,0.854,3.879,0.854,5.359,0l78.444-45.316c2.407-1.372,2.429-2.75,2.429-4.459L196.597,41.547z"/>
				<path id="XMLID_1225_" style="opacity:0.2;" d="M105.505,110.702c0,1.709,1.2,3.786,2.679,4.641l2.182,1.259
					c1.338,0.772,3.419,0.848,4.901,0.225c-1.261,0.477-2.221-0.243-2.221-1.772l0-25.281c0-0.854,0.3-1.801,0.785-2.641
					l-7.54-4.353c-0.485,0.84-0.785,1.786-0.785,2.641V110.702z"/>
				<path id="XMLID_1101_" style="opacity:0.4;fill:#FFFFFF;" d="M196.51,40.785c-0.313-1.138-1.35-1.5-2.587-0.788l-78.2,45.138
					c-0.737,0.425-1.412,1.15-1.888,2l-7.537-4.35c0.487-0.85,1.15-1.575,1.887-2l78.187-45.138c1.487-0.85,3.887-0.85,5.363,0
					l2.188,1.263C195.185,37.635,196.247,39.26,196.51,40.785z"/>
			</g>
			<g id="XMLID_733_">
				<path id="XMLID_829_" style="fill:#FFFFFF;" d="M120.245,96.872l54.538-31.515c0.897-0.518,1.624-0.281,1.624,0.528
					s-0.727,1.886-1.624,2.403l-54.538,31.515c-0.897,0.518-1.624,0.281-1.624-0.528C118.622,98.466,119.349,97.39,120.245,96.872z"
					/>
				<path id="XMLID_827_" style="fill:#FFFFFF;" d="M120.245,104.231l65.799-38.082c0.897-0.518,1.624-0.281,1.624,0.529
					c0,0.81-0.727,1.886-1.624,2.403l-65.799,38.081c-0.897,0.518-1.624,0.281-1.624-0.528
					C118.622,105.825,119.349,104.749,120.245,104.231z"/>
				<path id="XMLID_734_" style="fill:#FFFFFF;" d="M120.245,89.147l65.799-38.082c0.897-0.518,1.624-0.281,1.624,0.528
					c0,0.81-0.727,1.886-1.624,2.403l-65.799,38.081c-0.897,0.518-1.624,0.281-1.624-0.528
					C118.622,90.741,119.349,89.665,120.245,89.147z"/>
			</g>
		</g>
		<g id="XMLID_1505_">
			<g id="XMLID_1506_">
				<g id="XMLID_1561_">
					<path id="XMLID_1563_" style="fill:#263238;" d="M259.634,83.856l-5.54-3.2c-0.11-0.05-0.2-0.12-0.26-0.23l-1.02-1.78l3.29-1.9
						l-0.1,0.29L259.634,83.856z"/>
				</g>
				<path id="XMLID_1560_" style="fill:#37474F;" d="M255.603,77.017l3.834,6.641c0.245,0.425,0.876,0.364,1.036-0.099l4.052-11.698
					L255.603,77.017z"/>
				<path id="XMLID_1509_" style="fill:#37474F;" d="M273.689,41.59c0-1.709-1.199-3.786-2.679-4.641l-2.182-1.259
					c-1.479-0.854-3.879-0.854-5.358,0L189.161,78.5c-1.48,0.854-2.679,2.932-2.679,4.641v21.971c0,1.709,1.2,3.786,2.679,4.641
					l2.182,1.259c1.48,0.854,3.879,0.854,5.359,0L271.26,68.02c2.407-1.372,2.429-2.75,2.429-4.459L273.689,41.59z"/>
				<path id="XMLID_1508_" style="fill:#263238;" d="M186.482,105.112c0,1.709,1.2,3.786,2.679,4.641l2.182,1.259
					c1.338,0.772,3.419,0.848,4.901,0.225c-1.261,0.477-2.221-0.243-2.221-1.772l0-21.971c0-0.854,0.3-1.801,0.785-2.641
					l-7.54-4.353c-0.485,0.84-0.785,1.786-0.785,2.641V105.112z"/>
				<path id="XMLID_1507_" style="fill:#455A64;" d="M273.601,40.828c-0.313-1.138-1.35-1.5-2.587-0.787L196.7,82.856
					c-0.737,0.425-1.412,1.15-1.887,2l-7.537-4.35c0.487-0.85,1.15-1.575,1.887-2l74.302-42.815c1.488-0.85,3.887-0.85,5.363,0
					l2.188,1.263C272.277,37.678,273.339,39.303,273.601,40.828z"/>
			</g>
			<g id="XMLID_13_">
				<path id="XMLID_1504_" style="fill:#27DEBF;" d="M201.223,89.085l50.652-29.192c0.897-0.518,1.624-0.281,1.624,0.528
					s-0.727,1.886-1.624,2.403l-50.652,29.192c-0.897,0.518-1.624,0.281-1.624-0.528C199.599,90.679,200.326,89.603,201.223,89.085z
					"/>
				<path id="XMLID_1503_" style="fill:#27DEBF;" d="M201.223,96.444l61.914-35.758c0.897-0.518,1.624-0.281,1.624,0.528
					c0,0.81-0.727,1.886-1.624,2.403l-61.914,35.758c-0.897,0.518-1.624,0.281-1.624-0.528
					C199.599,98.038,200.326,96.962,201.223,96.444z"/>
			</g>
		</g>
		<g id="XMLID_1502_">
			<g id="XMLID_14_">
				<g id="XMLID_363_">
					<path id="XMLID_1501_" style="fill:#27DEBF;" d="M128.464,198.522l-5.54-3.2c-0.11-0.05-0.2-0.12-0.26-0.23l-1.02-1.78
						l3.29-1.9l-0.1,0.29L128.464,198.522z"/>
					<path id="XMLID_1500_" style="opacity:0.2;" d="M128.464,198.522l-5.54-3.2c-0.11-0.05-0.2-0.12-0.26-0.23l-1.02-1.78l3.29-1.9
						l-0.1,0.29L128.464,198.522z"/>
				</g>
				<path id="XMLID_360_" style="fill:#27DEBF;" d="M124.433,191.683l3.834,6.641c0.245,0.425,0.876,0.364,1.036-0.099l4.052-11.698
					L124.433,191.683z"/>
				<path id="XMLID_151_" style="fill:#27DEBF;" d="M165.852,138.062c0-1.709-1.199-3.786-2.679-4.641l-2.182-1.26
					c-1.479-0.854-3.879-0.854-5.359,0l-47.448,27.371c-1.48,0.854-2.679,2.932-2.679,4.641v26.654c0,1.709,1.2,3.786,2.679,4.641
					l2.182,1.26c1.48,0.854,3.879,0.854,5.359,0l47.698-27.553c2.407-1.372,2.429-2.75,2.429-4.459L165.852,138.062z"/>
				<path id="XMLID_150_" style="opacity:0.2;" d="M105.505,190.827c0,1.709,1.2,3.786,2.679,4.641l2.182,1.26
					c1.338,0.772,3.419,0.848,4.901,0.225c-1.261,0.477-2.221-0.243-2.221-1.772l0-26.654c0-0.854,0.3-1.801,0.785-2.641
					l-7.54-4.353c-0.485,0.84-0.785,1.786-0.785,2.641V190.827z"/>
				<path id="XMLID_15_" style="opacity:0.4;fill:#FFFFFF;" d="M165.764,137.301c-0.313-1.138-1.35-1.5-2.587-0.788l-47.454,27.375
					c-0.737,0.425-1.412,1.15-1.888,2l-7.537-4.35c0.487-0.85,1.15-1.575,1.887-2l47.441-27.375c1.488-0.85,3.887-0.85,5.363,0
					l2.188,1.263C164.439,134.15,165.502,135.775,165.764,137.301z"/>
			</g>
			<g id="XMLID_6_">
				<path id="XMLID_11_" style="fill:#FFFFFF;" d="M120.245,176.997l23.792-13.752c0.897-0.518,1.624-0.281,1.624,0.528
					s-0.727,1.886-1.624,2.403l-23.792,13.751c-0.897,0.518-1.624,0.281-1.624-0.528
					C118.622,178.59,119.349,177.515,120.245,176.997z"/>
				<path id="XMLID_10_" style="fill:#FFFFFF;" d="M120.245,184.355l35.054-20.318c0.897-0.518,1.624-0.281,1.624,0.529
					c0,0.81-0.727,1.886-1.624,2.403l-35.054,20.318c-0.897,0.518-1.624,0.281-1.624-0.528
					C118.622,185.949,119.349,184.873,120.245,184.355z"/>
				<path id="XMLID_7_" style="fill:#FFFFFF;" d="M120.245,169.272l35.054-20.318c0.897-0.518,1.624-0.281,1.624,0.528
					c0,0.81-0.727,1.886-1.624,2.403l-35.054,20.318c-0.897,0.518-1.624,0.281-1.624-0.528
					C118.622,170.866,119.349,169.79,120.245,169.272z"/>
			</g>
		</g>
		<g id="XMLID_1355_">
			<path id="XMLID_16785_" style="fill:#27DEBF;" d="M265.031,227.201l-2.382-4.48l1.917-5.533v-3.387l-5.866,3.387v3.387
				l2.522,4.368c0.043,0.074,0.104,0.122,0.171,0.152l-0.001,0.002L265.031,227.201z"/>
			<path id="XMLID_1931_" style="fill:#E0E0E0;" d="M265,227.178l-3.61-2.081c-0.072-0.033-0.125-0.079-0.171-0.151l-0.676-1.175
				l1.838-1.063l2.521,4.359C264.928,227.112,264.96,227.152,265,227.178z"/>
			<path id="XMLID_1358_" style="fill:#E6E6E6;" d="M274.245,196.656c0-1.122-0.787-2.485-1.759-3.046l-1.432-0.827
				c-0.971-0.561-2.546-0.561-3.517,0l-33.17,19.164c-0.971,0.561-1.759,1.924-1.759,3.046v17.155c0,1.122,0.788,2.485,1.759,3.046
				l1.432,0.827c0.971,0.561,2.546,0.561,3.518,0l23.066-13.313l2.517,4.36c0.161,0.279,0.575,0.239,0.68-0.065l2.66-7.679
				l4.247-2.468c0.971-0.561,1.759-1.924,1.759-3.046L274.245,196.656z"/>
			<path id="XMLID_16782_" style="fill:#E0E0E0;" d="M232.609,232.149c0,1.122,0.788,2.485,1.759,3.046l1.432,0.827
				c0.878,0.507,2.244,0.551,3.217,0.142c-0.828,0.313-1.458-0.154-1.458-1.157l0-17.155c0-0.561,0.197-1.182,0.515-1.733
				l-4.95-2.857c-0.318,0.551-0.515,1.172-0.515,1.733V232.149z"/>
			<g id="XMLID_16774_">
				<path id="XMLID_1356_" style="fill:#F0F0F0;" d="M274.188,196.156c-0.205-0.747-0.886-0.985-1.698-0.517l-33.174,19.167
					c-0.484,0.279-0.927,0.755-1.239,1.313l-4.947-2.855c0.32-0.558,0.755-1.034,1.239-1.313l33.165-19.167
					c0.976-0.558,2.552-0.558,3.52,0l1.436,0.829C273.318,194.089,274.016,195.155,274.188,196.156z"/>
				<path id="XMLID_16773_" style="fill:#FFFFFF;" d="M247.248,218.127c-1.296,0.749-2.347,2.569-2.347,4.066
					c0,1.497,1.051,2.104,2.347,1.355c1.296-0.749,2.347-2.569,2.347-4.066C249.595,217.985,248.545,217.379,247.248,218.127"/>
				<path id="XMLID_16775_" style="fill:#FFFFFF;" d="M255.902,213.121c-1.296,0.748-2.347,2.569-2.347,4.065
					c0,1.497,1.051,2.104,2.347,1.355c1.296-0.748,2.347-2.568,2.347-4.065C258.249,212.979,257.198,212.372,255.902,213.121z"/>
				<path id="XMLID_16776_" style="fill:#FFFFFF;" d="M264.556,208.115c-1.296,0.749-2.347,2.569-2.347,4.066
					c0,1.497,1.051,2.103,2.347,1.355c1.296-0.748,2.347-2.569,2.347-4.065C266.903,207.973,265.852,207.366,264.556,208.115z"/>
			</g>
		</g>
		<g id="XMLID_1917_">
			<path id="XMLID_1929_" style="fill:#27DEBF;" d="M259.74,158.475l-3.629-6.824l2.92-8.429v-5.16l-8.937,5.16v5.16l3.842,6.655
				c0.065,0.113,0.158,0.186,0.261,0.232l-0.002,0.003L259.74,158.475z"/>
			<path id="XMLID_1941_" style="fill:#263238;" d="M254.192,155.275l0.01-0.01c-0.11-0.04-0.2-0.12-0.27-0.23l-1.03-1.78l2.8-1.62
				l3.84,6.64c0.05,0.09,0.12,0.15,0.19,0.2L254.192,155.275z"/>
			<path id="XMLID_1927_" style="fill:#37474F;" d="M273.777,111.942c0-1.709-1.199-3.786-2.679-4.641l-2.182-1.259
				c-1.479-0.854-3.879-0.854-5.359,0L196.573,144.7c-1.48,0.855-2.679,2.932-2.679,4.641v26.134c0,1.709,1.2,3.786,2.679,4.641
				l2.182,1.26c1.48,0.854,3.879,0.854,5.359,0l51.592-29.744l3.834,6.641c0.245,0.425,0.876,0.364,1.036-0.099l4.052-11.698
				l6.47-3.759c1.48-0.854,2.679-2.932,2.679-4.641L273.777,111.942z"/>
			<path id="XMLID_1443_" style="fill:#27DEBF;" d="M210.184,152.713l55.627-32.215c0.897-0.518,1.624-0.281,1.624,0.528
				c0,0.81-0.727,1.886-1.624,2.404l-55.627,32.215c-0.897,0.518-1.624,0.281-1.624-0.528
				C208.561,154.307,209.288,153.231,210.184,152.713z"/>
			<path id="XMLID_1368_" style="fill:#27DEBF;" d="M210.184,160.072l42.469-24.52c0.897-0.518,1.624-0.281,1.624,0.528
				s-0.727,1.886-1.624,2.403l-42.469,24.52c-0.897,0.518-1.624,0.281-1.624-0.528C208.561,161.666,209.288,160.59,210.184,160.072z
				"/>
			<path id="XMLID_1359_" style="fill:#27DEBF;" d="M210.184,167.431l53.731-31.087c0.897-0.518,1.624-0.281,1.624,0.529
				c0,0.81-0.727,1.886-1.624,2.403l-53.731,31.086c-0.897,0.518-1.624,0.281-1.624-0.528
				C208.561,169.024,209.288,167.948,210.184,167.431z"/>
			<path id="XMLID_1926_" style="fill:#263238;" d="M193.894,175.475c0,1.709,1.2,3.786,2.679,4.641l2.182,1.26
				c1.338,0.772,3.419,0.839,4.901,0.216c-1.261,0.477-2.221-0.235-2.221-1.763l0-26.134c0-0.855,0.3-1.801,0.785-2.641l-7.54-4.353
				c-0.485,0.84-0.785,1.786-0.785,2.641V175.475z"/>
			<path id="XMLID_1925_" style="fill:#455A64;" d="M273.689,111.181c-0.313-1.138-1.35-1.5-2.587-0.787l-66.99,38.663
				c-0.737,0.425-1.412,1.15-1.887,2l-7.537-4.35c0.487-0.85,1.15-1.575,1.887-2l66.978-38.663c1.487-0.85,3.887-0.85,5.363,0
				l2.188,1.263C272.365,108.031,273.427,109.656,273.689,111.181z"/>
		</g>
	</g>
</g>
<g id="Character">
	<g id="XMLID_16968_">
		<g id="XMLID_16956_">
			<path id="XMLID_1784_" style="fill:#FFA8A7;" d="M399.009,139.815c-0.057-0.794-1.545-9.276-2.57-14.019l-9.97,3.056l1.6,6.645
				l8.296,8.021C398.996,142.996,399.066,140.61,399.009,139.815z"/>
		</g>
		<g id="XMLID_16974_">
			<g id="XMLID_16951_">
				<path id="XMLID_1782_" style="fill:#263238;" d="M358.821,115.809h31.823V81.452c0-7.448-6.038-13.486-13.485-13.486h-4.852
					c-7.448,0-13.486,6.038-13.486,13.486V115.809z"/>
			</g>
			<g id="XMLID_16959_">
				<polygon id="XMLID_1780_" style="fill:#F28F8F;" points="350.788,121.935 346.075,130.576 353.406,136.859 360.121,126.212 				
					"/>
			</g>
			<path id="XMLID_1597_" style="fill:#F28F8F;" d="M344.404,131.911c-1.057,2.716-3.399,7.02-0.62,9.124
				c2.779,2.104,10.529-0.425,10.529-0.425L344.404,131.911z"/>
			<g id="XMLID_16958_">
				<path id="XMLID_1778_" style="fill:#EBEBEB;" d="M368.471,102.678c-4.674,0.048-9.821,1.748-11.592,5.412
					c-1.771,3.665-7.308,15.08-7.308,15.08s4.132,6.048,10.684,5.622L368.471,102.678z"/>
			</g>
			<g id="XMLID_16975_">
				<path id="XMLID_1776_" style="fill:#263238;" d="M361.798,255.024c-1.74,2.115-3.691,3.839-5.79,5.588
					c-0.314,0.262-0.639,0.538-0.797,0.915c-0.255,0.609-0.623,2.104,2.137,2.91c2.697,0.787,5.989,0.4,8.324-1.236
					c2.155-1.509,2.104-4.414,4.118-6.176c1.493-1.306,3.421-1.721,4.596-3.387c0.818-1.16,0.513-2.631-0.039-4.444
					c-0.603-1.978-0.911-3.483-1.566-3.295l0.157,0.916c-0.759,1.364-5.029,1.976-6.986,1.163
					C365.953,247.979,362.933,253.644,361.798,255.024z"/>
			</g>
			<g id="XMLID_1590_">
				<path id="XMLID_1645_" style="fill:#FFA8A7;" d="M360.014,256.996c0-0.002,0-0.012-0.001-0.014
					c0.614-0.624,1.214-1.266,1.785-1.959c0.731-0.889,2.247-3.557,3.233-5.342c0.6-1.085,0.62-2.109,0.508-3.56l-0.576-4.845
					l7.309-1.085l0.667,6.624v-0.001c0.242,1.503-0.936,2.908-3.05,4.929c-2.113,2.021-4.692,6.611-6.636,7.834
					c-1.944,1.222-3.379,1.255-4.262,0.727C358.081,259.759,357.971,259.312,360.014,256.996z"/>
			</g>
			<g id="XMLID_16976_">
				<path id="XMLID_1642_" style="fill:#263238;" d="M384.24,256.252v-1.023c-0.403,1.2-2.275,6.366-5.113,8.954
					c-2.256,2.058-5.334,4.435-6.117,6.729c-0.814,2.386,4.283,3.188,6.391,2.815c2.449-0.434,5.618-1.823,7.343-3.943
					c1.213-1.49,1.985-3.256,2.851-4.428c0.866-1.172,2.862-2.48,3.33-3.836c0.257-0.745-0.048-2.376-0.41-3.755
					c-0.332-1.265-0.691-2.655-1.123-2.537c-0.001,0.154,0,0.78,0,0.78c-0.519,0.576-1.956,1.147-3.576,1.209
					C386.77,257.258,384.231,257.05,384.24,256.252z"/>
			</g>
			<g id="XMLID_1569_">
				<path id="XMLID_1639_" style="fill:#FFA8A7;" d="M377.084,265.994c0.7-0.625,1.404-1.235,2.043-1.818
					c1.983-1.809,3.494-4.876,4.362-6.969c0.496-1.195,0.75-2.471,0.75-3.764v-4.077h7.153v6.636v0v0.001v0.177l-0.036,0.018
					c-0.344,1.486-3.627,5.441-5.492,8.019c-1.25,1.729-3.626,3.927-6.464,4.306C376.711,268.882,375.336,268.034,377.084,265.994z"
					/>
			</g>
			<g id="XMLID_16993_">
				<path id="XMLID_1635_" style="fill:#27DEBF;" d="M389.97,145.081c5.546,12.112-0.2,54.78-0.2,54.78
					c0.167,1.966,2.414,5.833,3.251,14.484c0.989,10.222-1.552,35.887-1.552,35.887s-3.312,2.166-7.229,0.287
					c0,0-6.817-38.655-8.099-48.818c-1.119-8.869-2.962-23.568-2.962-23.568l-2.831,23.452c0,0,1.3,5.598,1.695,9.381
					c0.734,7.036,0.678,30.889,0.678,30.889s-3.072,2.102-7.757,1.412c0,0-6.943-36.788-8.882-43.745
					c-0.873-3.132-1.275-39.161,2.192-56.215L389.97,145.081z"/>
			</g>
			<g id="XMLID_1568_">
				<path id="XMLID_1632_" style="opacity:0.2;" d="M373.178,178.134l-1.985-15.143c0,0-4.648-0.046-8.478-2.789
					c0,0,2.793,2.868,7.101,4.378l2.034,12.828l-0.559,16.362L373.178,178.134z"/>
			</g>
			<g id="XMLID_16992_">
				<path id="XMLID_1628_" style="fill:#F5F5F5;" d="M380.188,103.002L380.188,103.002c4.234,1.019,7.608,3.923,9.388,7.678
					c1.354,2.859,1.37,6.174,0.336,9.164l-4.955,14.333c0,0,6.585,10.648,6.585,16.666c-11,6.136-28.738,4.141-34.39,0.149
					c-0.158-1.074,1.178-13.598,0.876-19.107c-0.322-5.874-1.129-12.507-0.205-16.138c1.715-6.74,4.926-13.068,11.319-13.068
					L380.188,103.002z"/>
			</g>
			<g id="XMLID_16960_">
				<path id="XMLID_1624_" style="fill:#F5F5F5;" d="M382.037,103.002c4.243,0.6,10.473,1.455,12.622,11.541
					c2.177,10.221,2.805,13.775,2.805,13.775s-3.482,4.052-10.522,4.018l-2.189-7.749L382.037,103.002z"/>
			</g>
			<g id="XMLID_16944_">
				<path id="XMLID_1621_" style="fill:#263238;" d="M379.631,111.507L379.631,111.507c3.075,0,5.568-2.493,5.568-5.568V89.708
					h-5.568V111.507z"/>
			</g>
			<g id="XMLID_16943_">
				<path id="XMLID_1618_" style="fill:#FFA8A7;" d="M364.048,74.402c-1.681,0.993-3.758,5.22-3.553,14.082
					c0.174,7.51,2.608,9.366,3.831,9.9c1.222,0.535,3.58,0.21,5.872-0.173v4.507c0,0-3.167,3.679-2.968,5.746
					c0.199,2.067,4.574,2.555,7.538,0.536c2.964-2.019,4.864-5.092,4.864-5.092V93.014c0,0,1.547,2.066,4.078,0.385
					c2.531-1.681,2.627-5.84,1.156-7.334c-1.471-1.494-4.642-1.021-5.234,1.043c0,0-3.655,0.133-8.522-2.54
					C366.241,81.894,364.371,77.314,364.048,74.402z"/>
			</g>
			<g id="XMLID_16942_">
				<path id="XMLID_1616_" style="fill:#263238;" d="M368.88,86.597c-0.027,0.541,0.373,1,0.894,1.025
					c0.521,0.025,0.965-0.394,0.993-0.935c0.027-0.541-0.373-1-0.894-1.025C369.352,85.637,368.907,86.056,368.88,86.597z"/>
			</g>
			<g id="XMLID_16941_">
				<path id="XMLID_1614_" style="fill:#F28F8F;" d="M368.628,92.964l-2.194,0.7c0.182,0.628,0.821,0.98,1.427,0.787
					C368.467,94.257,368.81,93.591,368.628,92.964z"/>
			</g>
			<g id="XMLID_16940_">
				<path id="XMLID_1612_" style="fill:#263238;" d="M361.136,83.697l1.911-1.325c-0.349-0.546-1.059-0.692-1.587-0.326
					C360.933,82.413,360.788,83.151,361.136,83.697z"/>
			</g>
			<g id="XMLID_1567_">
				<path id="XMLID_1610_" style="fill:#263238;" d="M361.577,85.914c-0.027,0.541,0.373,1,0.894,1.025
					c0.521,0.025,0.965-0.394,0.993-0.935c0.027-0.541-0.373-1-0.894-1.025C362.049,84.954,361.604,85.373,361.577,85.914z"/>
			</g>
			<g id="XMLID_1313_">
				<polygon id="XMLID_1608_" style="fill:#F28F8F;" points="366.033,85.374 365.882,91.059 362.89,90.132 				"/>
			</g>
			<g id="XMLID_16955_">
				<path id="XMLID_1606_" style="fill:#F28F8F;" d="M370.197,98.212c2.415-0.317,7.385-1.744,8.159-3.709
					c0,0-0.258,1.235-1.742,2.507c-1.484,1.272-6.417,2.705-6.417,2.705V98.212z"/>
			</g>
		</g>
		<g id="XMLID_1591_">
			<g id="XMLID_16957_">
				<path id="XMLID_1603_" style="fill:#263238;" d="M355.985,131.916c-1.369-2.549-1.709-2.661-2.523-3.22
					c-0.814-0.559-5.81-1.305-7.883-1.48c-2.439-0.206-3.305,0.243-2.627,2.34c1.451,4.489,5.209,12.917,6.195,14.233
					c0.646,0.862,0.341,1.691,3.534,2.351c2.521,0.522,6.405,1.074,7.351,1.13c0.946,0.057,2.254,0.292,1.406-2.49
					c-0.848-2.783-2.848-7.301-3.745-9.246C356.638,133.246,355.985,131.916,355.985,131.916z"/>
			</g>
			<g id="XMLID_16953_">
				<path id="XMLID_1601_" style="fill:#FFA8A7;" d="M388.069,135.497c0,0-20.413,1.829-23.281,0.939
					c-2.868-0.89-4.069-2.53-5.876-4.1c-1.805-1.569-3.076-1.188-3.076-0.694c0.37,0.73,1.437,3.087,1.857,3.892
					c0.55,1.053-1.91,1.125-4.944,0.426c-3.035-0.699-4.252-2.466-5.043-1.431c-0.791,1.035,1.681,6.078,6.724,7.957
					c5.043,1.879,8.784,0.639,12.945,0.814c4.161,0.175,23.202,2.037,28.989,0.217c0,0,0.67-2.707-2-4.925
					C391.695,136.375,388.069,135.497,388.069,135.497z"/>
			</g>
		</g>
		<g id="XMLID_16962_">
			<path id="XMLID_1599_" style="fill:#E0E0E0;" d="M386.469,129.802c0,0-1.572-4.168-2.439-7.867c0,0,0.398,5.852,2.048,8.998
				L386.469,129.802z"/>
		</g>
	</g>
</g>
</svg>
